<?xml version="1.0" encoding="utf-8"?>
<!-- Generator: Adobe Illustrator 19.1.0, SVG Export Plug-In . SVG Version: 6.00 Build 0)  -->
<svg version="1.1" id="Layer_1" xmlns="http://www.w3.org/2000/svg" xmlns:xlink="http://www.w3.org/1999/xlink" x="0px" y="0px"
	 viewBox="0 0 612 792" style="enable-background:new 0 0 612 792;" xml:space="preserve">
<style type="text/css">
	.st0{fill:none;stroke:#010101;stroke-width:3;stroke-miterlimit:10;}
	.st1{fill:none;stroke:#010101;stroke-width:6;stroke-miterlimit:10;}
	.st2{fill:#B4C74F;}
	.st3{fill:#72B8E5;}
	.st4{fill:#EFC31F;}
	.st5{fill:#FFFFFF;stroke:#000000;stroke-miterlimit:10;}
	.st6{fill:none;stroke:#000000;stroke-width:2;stroke-miterlimit:10;}
</style>
<ellipse transform="matrix(-0.7148 0.6993 -0.6993 -0.7148 801.5162 464.7399)" class="st0" cx="306" cy="395.8" rx="111.5" ry="46.5"/>
<ellipse transform="matrix(0.7957 0.6057 -0.6057 0.7957 302.2743 -104.4811)" class="st0" cx="306" cy="395.8" rx="111.5" ry="46.5"/>
<ellipse class="st1" cx="306" cy="395.8" rx="113.8" ry="48.8"/>
<ellipse transform="matrix(-7.031829e-03 1 -1 -7.031829e-03 703.9367 92.5848)" class="st1" cx="306" cy="395.8" rx="113.8" ry="48.8"/>
<circle class="st2" cx="226.2" cy="476.2" r="8.9"/>
<circle class="st3" cx="217.3" cy="328.2" r="8.9"/>
<circle class="st4" cx="383.2" cy="319.3" r="8.9"/>
<circle class="st3" cx="392.1" cy="467.2" r="8.9"/>
<path d="M322.6,418.4h-33.2c-4,0-7.2-3.2-7.2-7.2v-30.8c0-4,3.2-7.2,7.2-7.2h33.2c4,0,7.2,3.2,7.2,7.2v30.8
	C329.8,415.1,326.6,418.4,322.6,418.4z"/>
<rect x="294.3" y="383.9" class="st5" width="23.3" height="23.7"/>
<g>
	<line class="st6" x1="265.7" y1="383.9" x2="278" y2="383.9"/>
	<line class="st6" x1="265.7" y1="390" x2="278" y2="390"/>
	<line class="st6" x1="265.7" y1="407.7" x2="278" y2="407.7"/>
	<line class="st6" x1="265.7" y1="395.8" x2="278" y2="395.8"/>
	<line class="st6" x1="265.7" y1="402" x2="278" y2="402"/>
</g>
<g>
	<line class="st6" x1="319.9" y1="422.8" x2="319.8" y2="435"/>
	<line class="st6" x1="313.9" y1="422.7" x2="313.7" y2="435"/>
	<line class="st6" x1="296.2" y1="422.5" x2="296.1" y2="434.8"/>
	<line class="st6" x1="308.1" y1="422.6" x2="307.9" y2="434.9"/>
	<line class="st6" x1="301.9" y1="422.6" x2="301.7" y2="434.8"/>
</g>
<g>
	<line class="st6" x1="318.7" y1="356" x2="318.5" y2="368.2"/>
	<line class="st6" x1="312.6" y1="355.9" x2="312.5" y2="368.2"/>
	<line class="st6" x1="294.9" y1="355.7" x2="294.8" y2="368"/>
	<line class="st6" x1="306.8" y1="355.9" x2="306.7" y2="368.1"/>
	<line class="st6" x1="300.6" y1="355.8" x2="300.5" y2="368.1"/>
</g>
<g>
	<line class="st6" x1="334.7" y1="383.9" x2="347" y2="383.9"/>
	<line class="st6" x1="334.7" y1="390" x2="347" y2="390"/>
	<line class="st6" x1="334.7" y1="407.7" x2="347" y2="407.7"/>
	<line class="st6" x1="334.7" y1="395.8" x2="347" y2="395.8"/>
	<line class="st6" x1="334.7" y1="402" x2="347" y2="402"/>
</g>
</svg>
