<?xml version="1.0" encoding="UTF-8"?>
<!DOCTYPE svg  PUBLIC '-//W3C//DTD SVG 1.1//EN'  'http://www.w3.org/Graphics/SVG/1.1/DTD/svg11.dtd'>
<svg enable-background="new 0 0 128 128" version="1.1" viewBox="0 0 128 128" xml:space="preserve" xmlns="http://www.w3.org/2000/svg" xmlns:xlink="http://www.w3.org/1999/xlink">
		<defs>
			<rect id="b" x="29.579" y="76.157" width="69.229" height="47.843"/>
		</defs>
		<clipPath id="a">
			<use overflow="visible" xlink:href="#b"/>
		</clipPath>
		<g clip-path="url(#a)">
				<path d="m92.522 61.285c-3.481 0-6.281 2.795-6.281 6.28 0 2.308 1.277 4.319 3.141 5.394v0.883c0 3.141-3.141 6.281-6.281 6.281-2.598 0-4.658 0.537-6.28 1.424v-14.869c1.863-1.079 3.141-3.091 3.141-5.393 4e-3 -3.486-2.792-6.281-6.272-6.281-3.485 0-6.281 2.795-6.281 6.281 0 2.307 1.277 4.318 3.141 5.393v20.555c-1.863 1.08-3.141 3.092-3.141 5.395 0 3.48 2.796 6.281 6.281 6.281 3.48 0 6.281-2.796 6.281-6.281 0-1.667-0.637-3.141-1.667-4.27 0.933-1.129 2.405-2.012 4.808-2.012 6.28 0 12.557-6.281 12.557-12.558v-0.882c1.864-1.08 3.141-3.092 3.141-5.395 0-3.48-2.795-6.281-6.28-6.281v0.055h-8e-3zm-18.834-3.14c1.716 0 3.141 1.424 3.141 3.141 0 1.715-1.425 3.14-3.141 3.14s-3.141-1.425-3.141-3.14c1e-3 -1.722 1.422-3.141 3.141-3.141zm0 37.671c-1.716 0-3.141-1.425-3.141-3.141s1.425-3.141 3.141-3.141 3.141 1.425 3.141 3.141-1.425 3.141-3.141 3.141zm18.834-25.115c-1.716 0-3.141-1.425-3.141-3.141s1.425-3.141 3.141-3.141 3.141 1.425 3.141 3.141-1.421 3.141-3.141 3.141z"/>
		</g>
		<g clip-path="url(#a)">
				<path d="m73.522 86.377c-3.481 0-6.281 2.795-6.281 6.28 0 2.308 1.277 4.319 3.141 5.394v0.883c0 3.141-3.141 6.281-6.281 6.281-2.598 0-4.658 0.537-6.28 1.424v-14.869c1.863-1.079 3.141-3.091 3.141-5.393 4e-3 -3.486-2.792-6.281-6.272-6.281-3.485 0-6.281 2.795-6.281 6.281 0 2.307 1.277 4.318 3.141 5.393v20.555c-1.863 1.08-3.141 3.092-3.141 5.395 0 3.48 2.796 6.281 6.281 6.281 3.48 0 6.281-2.796 6.281-6.281 0-1.667-0.637-3.141-1.667-4.27 0.933-1.129 2.405-2.012 4.808-2.012 6.28 0 12.557-6.281 12.557-12.558v-0.882c1.864-1.08 3.141-3.092 3.141-5.395 0-3.48-2.795-6.281-6.28-6.281v0.055h-8e-3zm-18.834-3.141c1.716 0 3.141 1.424 3.141 3.141 0 1.715-1.425 3.14-3.141 3.14s-3.141-1.425-3.141-3.14c1e-3 -1.721 1.422-3.141 3.141-3.141zm0 37.672c-1.716 0-3.141-1.425-3.141-3.141s1.425-3.141 3.141-3.141 3.141 1.425 3.141 3.141-1.425 3.141-3.141 3.141zm18.834-25.115c-1.716 0-3.141-1.425-3.141-3.141s1.425-3.141 3.141-3.141 3.141 1.425 3.141 3.141-1.421 3.141-3.141 3.141z"/>
		</g>
		<g clip-path="url(#a)">
				<path d="m57.08 80.406v-20.919c2.251-1.016 3.824-3.354 3.824-6.073 0-3.652-2.833-6.613-6.328-6.613-3.494 0-6.329 2.961-6.329 6.613 0 2.72 1.578 5.057 3.824 6.073v20.919c-2.251 1.01-3.824 3.348-3.824 6.068 0 3.65 2.834 6.613 6.329 6.613s6.328-2.963 6.328-6.613c0-2.72-1.573-5.058-3.824-6.068m-6.157-26.992c0-2.107 1.636-3.817 3.652-3.817s3.652 1.709 3.652 3.817c0 2.106-1.636 3.815-3.652 3.815s-3.652-1.709-3.652-3.815m3.653 36.879c-2.017 0-3.652-1.713-3.652-3.818 0-2.107 1.636-3.816 3.652-3.816s3.652 1.709 3.652 3.816c0 2.105-1.636 3.818-3.652 3.818"/>
		</g>
	<defs>
		<filter filterUnits="userSpaceOnUse">
				<feColorMatrix color-interpolation-filters="sRGB" result="source" values="-1 0 0 0 1  0 -1 0 0 1  0 0 -1 0 1  0 0 0 1 0"/>
			<feFlood flood-color="white" result="back"/>
			<feBlend in="source" in2="back"/>
		</filter>
	</defs>
	<mask maskUnits="userSpaceOnUse">
	</mask>
						<path d="m92.408 77.157h-57.376c-13.514 0-24.498-10.985-24.498-24.499 0-11.43 8.065-21.362 19.061-23.869-0.044-0.564-0.065-1.107-0.065-1.629 0-12.742 10.365-23.108 23.109-23.108 8.998 0 16.997 5.102 20.829 13.134 9.748-1.552 18.832 3.17 23.457 11.408 11.451 2.148 19.982 12.309 19.982 24.064-1e-3 13.514-10.985 24.499-24.499 24.499zm-39.782-69.046c-10.507 0-19.06 8.553-19.06 19.061 0 0.89 0.087 1.855 0.261 2.952 0.086 0.531-0.044 1.085-0.37 1.52-0.325 0.435-0.803 0.728-1.346 0.804-9.997 1.422-17.529 10.115-17.529 20.211 0 11.277 9.172 20.449 20.449 20.449h57.376c11.277 0 20.461-9.172 20.461-20.449 0-10.106-7.543-18.801-17.553-20.223-0.662-0.087-1.225-0.499-1.529-1.096-3.844-7.652-12.189-11.94-21.08-9.889-0.977 0.228-1.975-0.293-2.334-1.237-2.886-7.349-9.854-12.103-17.746-12.103z"/>
	<path d="m66.225 38.574h7.207v-12.912h-7.506v3.604s-17.119-10.36-31.382 4.354c-14.266 14.715 4.054 38.589 31.531 26.727v1.052h7.959v-13.139h2.178v14.64h-4.205v7.659h18.02v-7.733h-3.98v-14.566h8.334l0.6 3.378h6.832v-11.786h-43.921v11.786h6.757l0.599-3.302h1.803s-1.771 9.315-14.94 7.657c0 0-10.812-1.501-10.962-10.661-0.149-9.159 13.515-16.518 25.076-6.758z"/>
</svg>
