<svg id="Layer_1" data-name="Layer 1" xmlns="http://www.w3.org/2000/svg" xmlns:xlink="http://www.w3.org/1999/xlink" viewBox="0 0 148.29 238.71"><defs><style>.cls-1{fill:#fff;stroke-miterlimit:10;stroke-width:2px;stroke:url(#Orange_Yellow);}.cls-2{fill:url(#Orange_Yellow-2);}.cls-3{fill:url(#Orange_Yellow-3);}.cls-4{fill:url(#Orange_Yellow-4);}.cls-5{fill:url(#Orange_Yellow-5);}.cls-6{fill:url(#Orange_Yellow-6);}.cls-7{fill:url(#Orange_Yellow-7);}</style><linearGradient id="Orange_Yellow" x1="121.67" y1="239.44" x2="269.96" y2="239.44" gradientUnits="userSpaceOnUse"><stop offset="0" stop-color="#fff33b"/><stop offset="0.04" stop-color="#fee72e"/><stop offset="0.12" stop-color="#fed51b"/><stop offset="0.2" stop-color="#fdca10"/><stop offset="0.28" stop-color="#fdc70c"/><stop offset="0.67" stop-color="#f3903f"/><stop offset="0.89" stop-color="#ed683c"/><stop offset="1" stop-color="#e93e3a"/></linearGradient><linearGradient id="Orange_Yellow-2" x1="135.61" y1="275.02" x2="256.02" y2="275.02" xlink:href="#Orange_Yellow"/><linearGradient id="Orange_Yellow-3" x1="47.76" y1="100.95" x2="63.24" y2="100.95" xlink:href="#Orange_Yellow"/><linearGradient id="Orange_Yellow-4" x1="111.09" y1="15.4" x2="120.71" y2="15.4" xlink:href="#Orange_Yellow"/><linearGradient id="Orange_Yellow-5" x1="47.76" y1="119.19" x2="63.24" y2="119.19" xlink:href="#Orange_Yellow"/><linearGradient id="Orange_Yellow-6" x1="47.76" y1="137.44" x2="63.24" y2="137.44" xlink:href="#Orange_Yellow"/><linearGradient id="Orange_Yellow-7" x1="140.77" y1="116.25" x2="246.47" y2="116.25" xlink:href="#Orange_Yellow"/></defs><title>bdc</title><path class="cls-1" d="M258.15,318.85H133.48a10.8,10.8,0,0,1-9.3-16.28L166.37,231h.37V177.23h-2.42a4,4,0,0,1-4-4v-9a4.22,4.22,0,0,1,4.22-4.22h62.76a4,4,0,0,1,4,4v9.23a4,4,0,0,1-4,4h-2.44V231h.39l42.19,71.62A10.8,10.8,0,0,1,258.15,318.85Z" transform="translate(-121.67 -81.15)"/><path class="cls-2" d="M247.12,310.6H144.51c-6.88,0-11.15-8-7.66-14.39l32.85-56.77h52.24l32.84,56.77C258.27,302.57,254,310.6,247.12,310.6Z" transform="translate(-121.67 -81.15)"/><rect class="cls-3" x="47.76" y="98.86" width="15.49" height="4.19" rx="1.86"/><circle class="cls-4" cx="115.9" cy="15.4" r="4.81"/><rect class="cls-5" x="47.76" y="117.1" width="15.49" height="4.19" rx="1.86"/><rect class="cls-6" x="47.76" y="135.35" width="15.49" height="4.19" rx="1.86"/><path class="cls-7" d="M246.47,124.2a18.6,18.6,0,0,1-30,14.72,13.95,13.95,0,0,1-25.88,5.57,17.9,17.9,0,0,1-9.18,2.51,18.1,18.1,0,0,1-13.58-6.12,5.58,5.58,0,0,1-11-1.19v0a10.82,10.82,0,0,1-9.91-10.78c0-.35,0-.7.05-1a10.82,10.82,0,1,1,11.2-18.37,10.83,10.83,0,0,1,9.85-6.34,10.7,10.7,0,0,1,1.39.09,10.82,10.82,0,0,1,13.92-1.37c.45-11.5,10.24-20.69,22.26-20.69,12.3,0,22.28,9.64,22.28,21.53a19.93,19.93,0,0,1-.21,2.91h.21A18.61,18.61,0,0,1,246.47,124.2Z" transform="translate(-121.67 -81.15)"/></svg>